<svg id="Layer_1" data-name="Layer 1" xmlns="http://www.w3.org/2000/svg" viewBox="0 0 646.7 144.15"><defs><style>.cls-1,.cls-2{fill:#71bb52;}.cls-2{font-size:123px;font-family:ProductSans-Regular, Product Sans;}.cls-3{letter-spacing:0em;}.cls-4{letter-spacing:-0.01em;}.cls-5{letter-spacing:0em;}.cls-6{fill:#71bc52;}</style></defs><title>applinic</title><circle class="cls-1" cx="29.35" cy="103.2" r="29.35"/><circle class="cls-1" cx="62.97" cy="59.91" r="15.94"/><circle class="cls-1" cx="87.68" cy="96.07" r="13.77"/><circle class="cls-1" cx="130.19" cy="54.96" r="27.17"/><circle class="cls-1" cx="157.09" cy="109.5" r="25.36"/><text class="cls-2" transform="translate(208.43 105.53)"><tspan class="cls-3">A</tspan><tspan class="cls-4" x="82.78" y="0">pp</tspan><tspan x="221.03" y="0">lin</tspan><tspan class="cls-5" x="339.84" y="0">i</tspan><tspan x="366.29" y="0">c</tspan></text><path class="cls-6" d="M574.82,850c.35.15.36-.28.45-.34C574.62,849.53,574.8,850.08,574.82,850Z" transform="translate(71.43 -723.73)"/><polygon class="cls-6" points="639.93 125.19 640.08 125.06 639.08 125.18 639.93 125.19"/><path class="cls-6" d="M562.8,847.36c.36.83,2.1.43,3,.94l.12.2.61-.43A18.81,18.81,0,0,1,562.8,847.36Z" transform="translate(71.43 -723.73)"/><path class="cls-6" d="M560.11,845.07c.13.32-.72.07.7.26l-.11-.1C560.57,845.21,560.4,845.15,560.11,845.07Z" transform="translate(71.43 -723.73)"/><path class="cls-6" d="M560.69,845.24c.61.14-.34-.33,0,0Z" transform="translate(71.43 -723.73)"/><path class="cls-6" d="M557.84,844.78l.86-.07c-.13-.2-.84-.38-.55-.44C557.29,844.23,557.42,844.42,557.84,844.78Z" transform="translate(71.43 -723.73)"/><path class="cls-6" d="M557,845.13l.44,0C557.34,845,557.24,845,557,845.13Z" transform="translate(71.43 -723.73)"/><path class="cls-6" d="M558.33,845.08l-.93,0c.09.14.05.37.42,0C557.71,845.31,557.92,845.15,558.33,845.08Z" transform="translate(71.43 -723.73)"/><path class="cls-6" d="M558.81,845.29c.42.25,1,.46.12.53C560.48,846.05,560.37,845.52,558.81,845.29Z" transform="translate(71.43 -723.73)"/><path class="cls-6" d="M562.33,848l.54.36.57-.1C563.16,848.31,562.35,847.78,562.33,848Z" transform="translate(71.43 -723.73)"/><path class="cls-6" d="M552.88,843.38c-.08.14.2.45.22.66l.63,0C553.44,843.82,552.88,843.61,552.88,843.38Z" transform="translate(71.43 -723.73)"/><path class="cls-6" d="M553.1,844l-.94.07C553,844.3,553.12,844.21,553.1,844Z" transform="translate(71.43 -723.73)"/><polygon class="cls-6" points="628.09 122.15 629.66 121.92 627.81 122.1 628.09 122.15"/><polygon class="cls-6" points="620.89 119.05 621.46 118.78 620.47 119.16 620.89 119.05"/><path class="cls-6" d="M547.18,842.47c.42-.23-.44-.57,0-.68a4.74,4.74,0,0,0-1.7.26A3,3,0,0,1,547.18,842.47Z" transform="translate(71.43 -723.73)"/><path class="cls-6" d="M544.62,842.24a5.44,5.44,0,0,0,.84-.2A2.77,2.77,0,0,0,544.62,842.24Z" transform="translate(71.43 -723.73)"/><path class="cls-6" d="M550.66,843.78a1,1,0,0,0-.63-.54l.28.48Z" transform="translate(71.43 -723.73)"/><path class="cls-6" d="M550.32,843.73v0l-.76-.15Z" transform="translate(71.43 -723.73)"/><path class="cls-6" d="M550.75,843.8l-.09,0S550.7,843.85,550.75,843.8Z" transform="translate(71.43 -723.73)"/><path class="cls-6" d="M554.41,845c-.57.13-1.7.15-.72.73C554.12,845.54,553.56,845.21,554.41,845Z" transform="translate(71.43 -723.73)"/><path class="cls-6" d="M551.09,844.39l.93.25c0-.11-.14-.31.14-.38l-.54.06Z" transform="translate(71.43 -723.73)"/><polygon class="cls-6" points="622.03 120.73 622.52 120.67 622.18 120.58 622.03 120.73"/><path class="cls-6" d="M546.19,842.9a3.86,3.86,0,0,1-1.4,0,11.06,11.06,0,0,0,1.62.39C546.5,843.18,546.77,843,546.19,842.9Z" transform="translate(71.43 -723.73)"/><path class="cls-6" d="M548.19,843.34h-.1C548.14,843.4,548.19,843.42,548.19,843.34Z" transform="translate(71.43 -723.73)"/><polygon class="cls-6" points="611.22 118.53 611.29 118.62 611.32 118.55 611.22 118.53"/><path class="cls-6" d="M546.48,843.39a1.17,1.17,0,0,0,.91,0,7.7,7.7,0,0,1-1-.08C546.36,843.35,546.35,843.39,546.48,843.39Z" transform="translate(71.43 -723.73)"/><path class="cls-6" d="M543.19,842.24c.2.12.43.21.68.33C543.68,842.39,543.28,842.14,543.19,842.24Z" transform="translate(71.43 -723.73)"/><path class="cls-6" d="M548,843.21H548C547.92,843.09,547.93,843.14,548,843.21Z" transform="translate(71.43 -723.73)"/><path class="cls-6" d="M548,843.21a2.54,2.54,0,0,0-.58.17,4.24,4.24,0,0,0,.7,0A.62.62,0,0,1,548,843.21Z" transform="translate(71.43 -723.73)"/><path class="cls-6" d="M537.95,844.8c.12-.38,1.23-.62,2.1-.09.94-.18.52-1.55-.19-2.37,0,.17-.07.33-1,.45.3.25,2,.75,1.18,1-1.26.05-1-.26-1.58-.54.45.55-1.66.52-1.47,1.28l1.11-.12C538.07,844.53,537.66,844.66,537.95,844.8Z" transform="translate(71.43 -723.73)"/><path class="cls-6" d="M541.64,842.6H542a4.07,4.07,0,0,1-1.27-.7c-.67.11-.82.24-.88.37l1.9.29Z" transform="translate(71.43 -723.73)"/><path class="cls-6" d="M543.78,842.81c-.36.38-1.31.46-.81,1,1.14.11.84-.24,1.54-.33-1.84-.19.56-.15-.73-.61a6.9,6.9,0,0,1,1,0,9.8,9.8,0,0,1-.92-.35l0,0h0c.07.07.09.1,0,.06h0a.42.42,0,0,1-.11.15c-.52-.16-.07-.13.11-.15a.32.32,0,0,0,0-.06H542A9.66,9.66,0,0,0,543.78,842.81Z" transform="translate(71.43 -723.73)"/><path class="cls-6" d="M552.56,846.46a.11.11,0,0,1,0-.11C552.39,846.37,552.34,846.4,552.56,846.46Z" transform="translate(71.43 -723.73)"/><path class="cls-6" d="M551.86,846a.87.87,0,0,1,.7,0c.35.2,0,.2,0,.35.28-.06,1-.12.19-.49l-.14,0c-.69-.31-1.54-1-1.41-1A3,3,0,0,0,551.86,846Z" transform="translate(71.43 -723.73)"/><path class="cls-6" d="M547.77,844.53l-1.55,0,.71.49v-.23C547.78,845,547.64,844.68,547.77,844.53Z" transform="translate(71.43 -723.73)"/><polygon class="cls-6" points="611.07 118.3 611.33 117.87 610.36 118.4 611.07 118.3"/><polygon class="cls-6" points="609.07 118.11 609.19 117.72 608.64 117.9 609.07 118.11"/><path class="cls-6" d="M426,850.29l-.43.17A2.13,2.13,0,0,0,426,850.29Z" transform="translate(71.43 -723.73)"/><path class="cls-6" d="M429.23,849.9l.05-.2C429.15,849.82,429.1,849.91,429.23,849.9Z" transform="translate(71.43 -723.73)"/><path class="cls-6" d="M488.62,840.18c-.67-.36-1.42-.89-1.33-.45l.22.43A2.18,2.18,0,0,1,488.62,840.18Z" transform="translate(71.43 -723.73)"/><path class="cls-6" d="M455.4,844.79l.2.11.4-.45Z" transform="translate(71.43 -723.73)"/><path class="cls-6" d="M455.1,846.62l-.88-.2A3.85,3.85,0,0,0,455.1,846.62Z" transform="translate(71.43 -723.73)"/><path class="cls-6" d="M408.56,853.19l-.45.51C408.92,853.58,408.53,853.41,408.56,853.19Z" transform="translate(71.43 -723.73)"/><path class="cls-6" d="M517.19,840.42a5.29,5.29,0,0,0-1.41-.31C516.46,840.37,517,840.76,517.19,840.42Z" transform="translate(71.43 -723.73)"/><path class="cls-6" d="M426.7,845.56c-.26.11-.37.22-.35.31C426.62,845.76,426.77,845.66,426.7,845.56Z" transform="translate(71.43 -723.73)"/><path class="cls-6" d="M514.15,840.06l.3.11a5.63,5.63,0,0,1,1.34-.07A1.93,1.93,0,0,0,514.15,840.06Z" transform="translate(71.43 -723.73)"/><path class="cls-6" d="M345.4,864.39l-.15,0C345.25,864.43,345.31,864.42,345.4,864.39Z" transform="translate(71.43 -723.73)"/><path class="cls-6" d="M326.16,864.26c.17-.07.47-.14.74-.21A2.38,2.38,0,0,0,326.16,864.26Z" transform="translate(71.43 -723.73)"/><path class="cls-6" d="M529.63,840.86c.43,0,.07,0,0,0Z" transform="translate(71.43 -723.73)"/><path class="cls-6" d="M531.54,842.75a.28.28,0,0,0-.19.2A.35.35,0,0,1,531.54,842.75Z" transform="translate(71.43 -723.73)"/><path class="cls-6" d="M509.87,842.65h0C510,842.73,509.94,842.72,509.87,842.65Z" transform="translate(71.43 -723.73)"/><path class="cls-6" d="M530.25,841.11a3.37,3.37,0,0,0-.53-.17A3.5,3.5,0,0,0,530.25,841.11Z" transform="translate(71.43 -723.73)"/><path class="cls-6" d="M530.18,840.9l.37.07C530.61,840.91,530.57,840.86,530.18,840.9Z" transform="translate(71.43 -723.73)"/><path class="cls-6" d="M529,840.84a4,4,0,0,1,.68.1c-.08,0-.11-.06-.09-.08Z" transform="translate(71.43 -723.73)"/><path class="cls-6" d="M378.92,856.55l-.1,0C378.44,856.78,378.62,856.72,378.92,856.55Z" transform="translate(71.43 -723.73)"/><path class="cls-6" d="M477.85,845.12l0,0h-.06Z" transform="translate(71.43 -723.73)"/><path class="cls-6" d="M476.37,845.53a1.4,1.4,0,0,1,1.47-.45l-.56-1.22Z" transform="translate(71.43 -723.73)"/><path class="cls-6" d="M418.34,851.44l1.1.24c-1.18.81-2.12.72-1.06,1.13,0-1.37,4-.71,4-2.06l.73.19c-.2,0-.22.1-.42.11,1.43.47.87-1.1,2.63-1.14.62,0,1.06.17.67.38l1.3-.51c.4,0,.33.22-.06.25l2-.37v0a8.85,8.85,0,0,1,1.2-.84c.55.13-.24.17-.09.33l1.1-.46c.51.3-.4.74-1.19.79,1.23,1.22.9-.45,3.29.07l-1.05.3c.78.68,1.59.31,2.86.64-.32-.22-2.57-.92-1.38-1.4a2.13,2.13,0,0,0,1.46-.29c.06.48.7.28,1.51.16l0,.64c.86-.29.75-.6,1.24-.95a1.47,1.47,0,0,1,1.52.8c1.58-.08-1.17-.67.67-1a8.28,8.28,0,0,0,3.75-.79c.94.12-.12.41.23.55l.76-.59c.2,0,.15.15.13.24.66-.27,0-.64,1-.93.22-.73,2.31.79,3.57-.14.35.15-.12.4,0,.64a12.71,12.71,0,0,0,3-1.36l1.32.3c-1-.39.17-1.07,1.18-1.63a8.78,8.78,0,0,0-.86-.46l1.66-.49c.21.09.06.32-.19.61l.3-.18c.62.18.34.58-.06,1l-.64-.34c-.38.42-.73.89-.61,1.25a1.52,1.52,0,0,1,.54-.22c-.1.11-.16.21-.1.27s.23-.09.49-.28l.44.68.07-.29,2.23.25c1.51-.85,2.8-2,5.28-2.48-.58.57-.07.86-.06,1.48-.73-.6-1.91.42-3.22.39.68,0,.56.32.39.44l2.26-.77c0,.51.52.34,1.14.51-.53-1,1.67-.79,2.59-1.17.08.33-.12.69-1.27.7,1.32.66,1.55-1.3,2.84-.75-.28,0-.43,0-.53.17.63-.36,2.25-.21,1.89.11l-.28,0c1.87,0,5.66-.32,5.89-1.19a4.85,4.85,0,0,1-.29,1.22l3.18-3.05c-.26.75,1,2.42-.57,2.92a3.62,3.62,0,0,0,1.92-.12c-.31-.09-.8-1-.39-1.11a9,9,0,0,0,2.24,1c-.46-.14,0-1.3.71-1.29-.1.18.11,1.13-.15,1.26l1.74-1.19c-.44.22,0,1,.37,1.26-.19-.21,1.54,0,2-.17l-.76-.23c2,.1,1.94-1.68,3.94-1.66-.24.24-.56,1.44.46,1.56.45-.58,2-2.81,3.77-3.29l.35.32,1.36-.4a27.86,27.86,0,0,1-4.46,3.49c.76.25.22.38,1.34.33.4.3-.6.48-.93.5l2.62.15c-.13-.67,2-.71,1.89-1.27l-2.84.75c-.13-.67,1.61-1.94,3.48-1.86.48.26-.34,1.2-.3,1.43a3.34,3.34,0,0,1,1.93-.31l-.79.37c1,.23,1.68-.89,2.93-.25.43,0,1.28.87,1.36.47a4.27,4.27,0,0,1-.37-3.72,16.48,16.48,0,0,1,2.76,1.12c.7.6-1.07,1.43-.47,1.95,0-.18.42-.41.58-.48.45.16-.19.57.79.49.17-.68,2,.06.47-.57,1-.19,1,.14,2.15.12-.35-.45,1-1.47,2-1.64-.06.17.15.4.25.51,2,.12,3,.45,4.86.51.16.17,1,.39.65.68a2.18,2.18,0,0,1,1.09-.34c1.07.62-1.27.05-.46.79.09-.4,1.48-.49,2.3-.69-.22-.62-1.86-.23-2.67,0,0-.85,1.47-1.69,3.42-2,1.54-.13.64.58.91.48,2.86.31,2.54-1.34,4.89-.6.91.59,0,1.07.16,1.47-1.26.13-1.89-.45-2.74-.47l1,.31a2.88,2.88,0,0,1-1.69.07c.76.53,4.84.33,7,1,.41-.15,1.1-.27.8-.52h-.7c-.61-.49,1.37-.48.5-.76a6.37,6.37,0,0,1,3.37-.25l.19.63c0-.18-.83-.44-1.22-.28.58-.22,1.95,1,2.63.25l-.89-.5c1-.24,2.21-.77,3.37-.42-.47-.67-.28,0-1-.77.64.93-3-.33-1.94.7-.78-.89-1.45-.47-2.51-1.27,0,.2.36.42-.62.24a1,1,0,0,1-.23.16l-.07,0,.05,0s0,0,0,0a1.12,1.12,0,0,1,.48.35c-.53.42-2.1.27-2.65.46-.58-.15.26-.21,0-.45l-.82.29c0-.45-1.5-.88-.1-1l-1.24-.12a4.42,4.42,0,0,0-2.36-.29c-.58-.13-1.52.41-1,.09l-2,.17v-.11c-1.93-.16-4,.51-6.18-.34a7.3,7.3,0,0,1-2.41.06l-.2-.39c-.84.11-2.5-.46-2.87-.06-.88-1.1-4.05-.28-5.52-.47l-.06.51a16.89,16.89,0,0,0-3.23.31l.08.45c-1.08.36-2.78-.33-4.48-.24.11-.17.55-.14.85,0-2.06-1-4.29.82-6.15.12a1.55,1.55,0,0,1-1.12,0l.11,0h-.19c-.21-.07-.42-.16-.65-.23a2.42,2.42,0,0,0,.55.23,7.27,7.27,0,0,0-1.42.22l-.24-.47-.12,0c-.52-.16-.41.24-.12.6a3,3,0,0,0-.69.32c-.45-.76-1.37.32-2-.49-.34.42-2.64.41-2.88,1.27,0-.11-.18-.16.1-.17a2.92,2.92,0,0,0-1.7.11l-.28-.6-1.24.87c-.8-.33-1.13-.53-.38-1-1.83.83-1.5.36-3,1.17l.06-.4c-.57,0-1.44.63-1.8.32-.66-.34-2.23-.27-4-.19a31.24,31.24,0,0,1-5.54,0c.72,1.12-1.55-.41-1.61.5-.21-.26-.68-.38-.17-.66-1.64.4-2.53-.26-3.62.6-.21-.26.32-.43.14-.58-.13.07-.51.29-.69.14s.22-.25.48-.4c-1.69.2-1.79,1.06-1.85,1.87a1.51,1.51,0,0,0-1.89.37c-.32-.23-.84-.46.2-.65-.59,0-3.65-.06-3.65.59-.2-.14-.83,0-1,.11a21.79,21.79,0,0,0-2.75.24l.37.07c-.44.82-1.06.28-2.1.49l0-.08c-2.46-.3-1,.37-3.45,0l.18.46c-.11,1.05-2.17-.39-3.5.16l.53.21c-.71.44-2.26-1.15-3-1.19-.17-.07.24-.17.47-.27-2-.37-.18.65-1.64,1-.31-.3.25-.9-.75-.84-.53-.21-2.75,1.43-4.18.94.33.22.66.45,0,.72-1,.22-3-.62-3.8.32-.14-.05-.2-.11-.21-.18-.77.31-2.56.69-3,1.19-1-1.56-4.86,1.46-5-.05l-2.45.43,0-.16a3.65,3.65,0,0,0-2.59,1c-.38-.05-.13-.23-.11-.31a6.23,6.23,0,0,0-4.37,1.16l-.27-.46c-.48.36-3.43-.27-5.59.64a.38.38,0,0,1,.21-.26c-2.44,1-6.27-.39-6.91,1.54l-1.59.71c2.18-.21-.19.82.74,1-.83.24-2.28-.19-1.25-.44l.18.06c.23-1-2.73.12-2.78-.52-4.23.76-8.44,1-12.41,1.64l.59.64-1.39.21c-.39-.1-.59-.48.4-.62-.59-.32-1.59.64-1.59.8-2,.06.6-1,0-.89l-.79.2.2.05c-.6.42-.6.74-1.79.92-.78,0-.47-.37-.77-.34,0-.05-.11-.06-.46.06l-1.75.26.8.44c-.72.42-1.64.28-.72.77-1.37-.78-6.55.88-7.33.72a8.6,8.6,0,0,1-3.39,1c.35.05.67.65-.48.8.15-1.4-2.19-.15-3.3-.91.95.46-3.2.81-1.73,1.44-1,.08-.16-.48-.94-.64-2.15,1-5,.7-7.78,1.46,0,.18.51.34,0,.73l-1.65-.54c-.53.2-.29,1.1-1.42.72.17.11.43.29.08.42-5.63.34-10.95,3.13-16.82,2.88.83.16.34.3-.23.45.39,0,.09.42.22.64l-2.46-.09c-.26.74-2.46.65-2.55,1.32l.7-.29c-.79,1,1.75,1.28,1.83,2.24.88-1.08,3.14.53,4.64-1.07.44.1-.26.38,0,.55.36-.51.88-.72,1.93-.77l-.09.13c2.81-.76,4.12-.64,7.36-1.09l-.34-.41a3.13,3.13,0,0,1,1.22.07c.63-.88-1.93.39-1.39-.54,1.12.74,4.84-1.06,5.69-.12,1.06-.22-.43-.47.63-.69l.34.23.19-.43c.71-.09,1.13.2,1.21.44a3.13,3.13,0,0,0-.64.23c1,.15,2.5-.66,2.84-.62l-1.05,0c2.82-.89,6.43-1.24,9.09-2.4l-.26-.18c2.05-.84,1.76-.1,4.06-.76l-.07.07a4,4,0,0,1,1.67-.65c-.54.37,1.21.28.49.72,2.23-.89,1.08-.56,2.45-1.68l.42.3a2.6,2.6,0,0,1,1.62-.94c-.9.5.85.41-.14,1,2.61.32,3.5-1.51,4.85-.56.94-1.22-2.24-.16-1.64-.5-.59-.23.79-.93,1.58-1s1.58,1,3.55.65c-.2,0-.2.11-.39.14.79.12,1.39-.62,2.37-.37.4-.71,1.19-.18,1.19-1l-1.78.51c1-.4,1.79-1.48,3.57-1.34a3.06,3.06,0,0,1-.9.66c.54.14.93-.32,1.48-.18,0,.81-2.18.56-3.17,1.36.59.23,2-.94,1.58,0,.6-1.22,2-.21,3.17-1.27v.48a3,3,0,0,1,1-.47l-.6.73c1-.71,2.17.08,3.16-.39-2.18.4-.59-.48-1.57-.65,2.58-1.11,1.76,1,4.73.21-.4.14-1.58,0-1-.35a5.06,5.06,0,0,1,1.77.24c2-.44-.39-.43.41-.86.78.45.94-.4,1.79-.73l.09.47c2.33-.08.44-1.1,2.55-1.07l-.76.8,1-.35-.13.58a4.46,4.46,0,0,1,2.64-.57c-.32-.29,0-.89,1-1.07.73.17-.31.51,1.11.22-.28.35-.57.78-1.26.44,0,.17-.27.35-.31.51a6,6,0,0,0,2.39-.31,1.71,1.71,0,0,1-.58,0l2-1c.35.13.12.31-.12.49a11.24,11.24,0,0,1,1.28-.53c-.1.41,0,.81-.84,1.13l1.91-.74c.16.15,1.09.31.85.49,1.13.06,2.57-1.16,4.07-1.08a1,1,0,0,1,.51-.28c1.38-.12,2.66.17,4.2-.59l1,.57c1.25-.34-1.37-.7.71-1.26,1.47-.43.64.52,1.2.64a4.16,4.16,0,0,1,3.34-1A6.71,6.71,0,0,1,418.34,851.44ZM434,849.11c-.29.14-.86.52-1.12.26C433.15,848.78,433.45,849,434,849.11Zm23.81-3.61c-.21.18-.57.13-1,0A2.11,2.11,0,0,1,457.8,845.5ZM525,840.89l0,0C524.25,840.68,524.49,840.77,525,840.89Zm1.42.3c.15-.05.14-.12.09-.19-.11.12-.43.09-.79,0C525.77,841.16,525.95,841.26,526.38,841.19Zm-152.47,13,.3.07C373.62,854.5,373.77,854.34,373.91,854.17Z" transform="translate(71.43 -723.73)"/><path class="cls-6" d="M455.14,846.41a.46.46,0,0,1-.15-.25C454.88,846.25,454.88,846.34,455.14,846.41Z" transform="translate(71.43 -723.73)"/><path class="cls-6" d="M408.65,853.09h0a.21.21,0,0,0,0,.09Z" transform="translate(71.43 -723.73)"/><path class="cls-6" d="M504.18,844.47a1.3,1.3,0,0,1-.56-.25C503.6,844.34,503.74,844.44,504.18,844.47Z" transform="translate(71.43 -723.73)"/><path class="cls-6" d="M534,841l-.93,0a1.66,1.66,0,0,1,.81.23C533.91,841.18,533.75,841,534,841Z" transform="translate(71.43 -723.73)"/><path class="cls-6" d="M541.6,844.91c.14,0,.28,0,.42,0v-.23C541.45,844.61,541,844.75,541.6,844.91Z" transform="translate(71.43 -723.73)"/><path class="cls-6" d="M534.72,842.69c0,.4.62.34,1.26.34h-.11C536.12,842.48,535.42,842.58,534.72,842.69Z" transform="translate(71.43 -723.73)"/><path class="cls-6" d="M536.13,843a3.06,3.06,0,0,1,.59.06C536.82,842.88,536.49,843,536.13,843Z" transform="translate(71.43 -723.73)"/><path class="cls-6" d="M528.21,841.08c.3.13.23-.5.39-.32C529,840.27,526.53,841.2,528.21,841.08Z" transform="translate(71.43 -723.73)"/><polygon class="cls-6" points="606.53 120.35 606.36 119.83 605.96 120.19 606.53 120.35"/><path class="cls-6" d="M530.11,843.27l1,.23c0-.09.13-.12.29-.15C530.78,843.28,530.1,843.12,530.11,843.27Z" transform="translate(71.43 -723.73)"/><path class="cls-6" d="M531.4,843.35a2.14,2.14,0,0,0,.83,0A4.84,4.84,0,0,0,531.4,843.35Z" transform="translate(71.43 -723.73)"/><polygon class="cls-6" points="605.13 120.37 604.84 120.24 604.13 120.14 605.13 120.37"/><path class="cls-6" d="M519.15,842.44l-1.12.08c-.12.17.18.29.59.24S519.32,842.61,519.15,842.44Z" transform="translate(71.43 -723.73)"/><path class="cls-6" d="M522.44,844c-.29-.12-.31-.23-.47-.41l-.07.62Z" transform="translate(71.43 -723.73)"/><path class="cls-6" d="M519.2,844c-.12.17-1.63.41-.23.44C519.09,844.24,520.21,844.16,519.2,844Z" transform="translate(71.43 -723.73)"/><polygon class="cls-6" points="573.91 119.04 574.19 119.03 574.15 118.02 573.91 119.04"/><path class="cls-6" d="M487.77,845.4c1.32.19.29-.64,1.49-.37.3-.25-1-.23-.67-.44C487.8,844.87,487.38,844.75,487.77,845.4Z" transform="translate(71.43 -723.73)"/><path class="cls-6" d="M488.59,844.59a3.37,3.37,0,0,0,.4-.16A1.49,1.49,0,0,0,488.59,844.59Z" transform="translate(71.43 -723.73)"/><polygon class="cls-6" points="394.43 140.74 393.55 140.74 394.17 140.94 394.43 140.74"/><path class="cls-6" d="M321.59,865.59l-.35-.58-.35.69C321.06,865.63,321.41,865.48,321.59,865.59Z" transform="translate(71.43 -723.73)"/><path class="cls-6" d="M436.48,850.14l0-.16c-.15-.15-.35-.14-.74-.12Z" transform="translate(71.43 -723.73)"/><polygon class="cls-6" points="496.47 127.33 496.67 127.32 496.23 126.78 496.47 127.33"/><path class="cls-6" d="M415.6,853.09c.39,0,.83-.22,1.23-.25C416,853.06,415.4,852.39,415.6,853.09Z" transform="translate(71.43 -723.73)"/></svg>